<svg width="310" height="162" viewBox="0 0 310 162" fill="none" xmlns="http://www.w3.org/2000/svg">
<path d="M72.0931 74.0494L73.0657 143.009C73.0657 145.537 74.6218 147.093 77.1504 147.482L101.075 151.178C103.798 151.761 105.354 150.4 105.354 147.871L105.16 69.1272C105.16 66.4041 103.604 65.0425 101.075 65.237C101.075 65.237 80.0329 69.4331 76.1778 69.9647C72.3228 70.4963 72.0931 71.5208 72.0931 74.0494Z" fill="#FFFCEB"/>
<path d="M183.352 157.013C183.158 159.931 181.018 161.293 178.295 161.293L113.718 153.318C111.383 152.929 109.827 151.373 109.827 149.038V129.588C109.827 128.809 109.827 127.253 110.605 126.475C111.189 125.697 111.967 125.114 112.551 124.53L143.283 86.9412L115.663 89.2753C113.329 89.2753 111.772 88.1083 111.772 85.5797V66.3232C111.772 63.6001 113.329 61.8495 115.857 61.4605L180.629 46.3589C183.936 45.5809 184.519 48.693 184.519 51.4162L183.352 83.8777C183.352 86.6008 182.38 89.324 180.434 91.4636L146.59 126.864L180.434 126.864C183.741 126.864 184.519 129.782 184.519 132.505L183.352 157.013Z" fill="#FFFCEB"/>
<path d="M270.105 150.983C270.105 153.122 269.133 154.873 266.799 155.068L193.468 160.903C190.745 160.903 188.217 160.125 188.411 157.013L189.189 132.31C189.189 131.143 189.384 129.198 190.162 128.031C190.745 127.058 191.718 126.086 192.496 125.113L224.395 89.9068L193.009 87.1026C189.703 87.1026 189.119 84.185 189.119 81.4618L190.286 51.4047C190.286 48.6815 191.259 45.1803 194.565 44.9858L262.13 60.3413C264.854 61.3139 266.215 63.648 266.021 66.3711L265.632 89.1288C265.632 91.4629 264.465 93.408 262.908 94.7695L232.176 125.697L265.243 125.502C268.16 125.502 269.327 127.836 269.327 130.365L270.105 150.983Z" fill="#FFFCEB"/>
<path d="M273.8 150.206L273.217 66.9662C273.217 64.4376 274.578 62.8815 277.301 63.6596L302.199 69.095C304.727 69.2896 306.283 70.8456 306.283 73.3743V146.704C306.283 149.622 304.533 150.984 301.81 151.373L277.301 154.096C274.773 154.29 273.8 152.54 273.8 150.206Z" fill="#FFFCEB"/>
<circle cx="289.739" cy="32.9621" r="20.2614" fill="#FFFCEB"/>
<circle cx="89.8251" cy="34.9887" r="20.2614" fill="#FFFCEB"/>
<path fill-rule="evenodd" clip-rule="evenodd" d="M21.2016 9.96341C13.2267 21.245 12.6431 37.9728 12.6431 51.1995L12.6431 74.3461C12.6431 77.6257 12.6677 81.4269 12.7091 85.5008L4.08471 87.5242C1.55608 87.5242 0 89.0803 0 91.6089L0 110.087C0 112.616 1.75059 113.783 4.08471 113.783L13.1043 111.667C13.3555 125.17 13.6157 136.2 13.6157 136.2C13.6157 138.534 15.3663 139.896 17.7004 140.09L42.7922 143.581C45.1263 143.775 46.8769 142.803 46.8769 140.274C46.8769 140.274 46.4031 123.854 46.0581 103.936L61.6596 100.275C63.9937 100.275 65.7443 99.1083 65.7443 96.5797V78.1013C65.7443 75.5726 64.1882 74.0166 61.6596 74.0166L45.7348 77.7527C45.6707 67.4862 45.7023 57.7103 45.9043 50.0324C45.9043 47.1148 46.0988 43.4191 47.4604 40.696C48.2384 39.1399 49.4055 38.1673 51.3506 38.1673C53.1012 38.1673 54.6573 38.3618 56.2133 39.1399C57.5749 39.9179 58.9365 40.696 60.1035 41.6685C60.1481 41.7019 60.1939 41.7366 60.241 41.7723C61.0153 42.3584 62.1155 43.1912 63.2157 42.6411C63.4086 42.5253 63.5938 42.356 63.7699 42.1513C63.1441 39.87 62.8099 37.468 62.8099 34.9879C62.8099 25.4335 67.7699 17.0374 75.2555 12.2343C75.4119 10.5019 74.6404 8.95665 72.9412 7.8238C69.44 5.48969 65.3553 3.7391 61.2706 2.57204C56.6024 1.01596 51.1561 0.237918 46.0988 0.0434085C36.7623 -0.345611 27.0369 1.794 21.2016 9.96341Z" fill="#FFFCEB"/>
</svg>
